<svg width="48" height="37" viewBox="0 0 48 37" fill="none" xmlns="http://www.w3.org/2000/svg">
<path d="M13.4351 35.3553L1.41431 23.3345C0.633265 22.5535 0.633265 21.2871 1.41431 20.5061L14.906 7.01441C15.3188 6.60156 15.8915 6.38973 16.4736 6.43451L27.6358 7.29314C28.6194 7.3688 29.4009 8.1503 29.4765 9.13386L30.3351 20.296C30.3799 20.8782 30.1681 21.4508 29.7552 21.8636L16.2636 35.3553C15.4825 36.1364 14.2162 36.1364 13.4351 35.3553Z" fill="#FF2934" stroke="#FF2934"/>
<path d="M27.9309 12.3743C26.9545 13.3507 25.3716 13.3507 24.3953 12.3743C23.419 11.398 23.419 9.81512 24.3953 8.83881C25.3716 7.8625 26.9545 7.8625 27.9309 8.83881C28.9072 9.81512 28.9072 11.398 27.9309 12.3743ZM25.3676 9.81108C24.9283 10.2504 24.9283 10.9627 25.3676 11.4021C25.8069 11.8414 26.5192 11.8414 26.9586 11.4021C27.3979 10.9627 27.3979 10.2504 26.9586 9.81108C26.5192 9.37174 25.8069 9.37174 25.3676 9.81108Z" fill="white"/>
<path d="M26.4476 9.49117C28.0079 4.94682 29.0984 0.979197 32.1044 1.00589C35.1105 1.03258 35.7299 8.86498 37.0542 10.1983C38.3785 11.5316 39.8826 8.78406 39.8826 8.78406" stroke="white" stroke-width="2"/>
<path d="M18.817 30.6603C17.7903 30.6603 16.9507 30.323 16.298 29.6483C15.6527 28.9736 15.33 27.991 15.33 26.7003C15.33 25.4023 15.6563 24.4196 16.309 23.7523C16.969 23.085 17.816 22.7513 18.85 22.7513C19.8913 22.7513 20.731 23.0813 21.369 23.7413C22.007 24.394 22.326 25.3876 22.326 26.7223C22.326 28.0496 21.9997 29.0396 21.347 29.6923C20.6943 30.3376 19.851 30.6603 18.817 30.6603ZM18.828 24.8633C18.476 24.8633 18.179 25.0246 17.937 25.3473C17.7023 25.67 17.585 26.1246 17.585 26.7113C17.585 27.2906 17.6987 27.738 17.926 28.0533C18.1533 28.3613 18.4503 28.5153 18.817 28.5153C19.191 28.5153 19.4917 28.3576 19.719 28.0423C19.9537 27.727 20.071 27.276 20.071 26.6893C20.071 26.1026 19.95 25.6516 19.708 25.3363C19.4733 25.021 19.18 24.8633 18.828 24.8633ZM27.3232 22.8503C27.4478 22.8503 27.5102 23.1766 27.5102 23.8293C27.5102 24.4746 27.4478 24.7973 27.3232 24.7973H25.3102V26.0513H26.6522C26.7768 26.0513 26.8392 26.3373 26.8392 26.9093C26.8392 27.474 26.7805 27.7563 26.6632 27.7563H25.3102V30.4073C25.3102 30.51 25.1708 30.576 24.8922 30.6053C24.6208 30.642 24.3935 30.6603 24.2102 30.6603L23.6932 30.6383C23.3338 30.5943 23.1542 30.521 23.1542 30.4183V23.1363C23.1542 23.019 23.1762 22.942 23.2202 22.9053C23.2715 22.8686 23.3448 22.8503 23.4402 22.8503H27.3232ZM32.5117 22.8503C32.6363 22.8503 32.6987 23.1766 32.6987 23.8293C32.6987 24.4746 32.6363 24.7973 32.5117 24.7973H30.4987V26.0513H31.8407C31.9653 26.0513 32.0277 26.3373 32.0277 26.9093C32.0277 27.474 31.969 27.7563 31.8517 27.7563H30.4987V30.4073C30.4987 30.51 30.3593 30.576 30.0807 30.6053C29.8093 30.642 29.582 30.6603 29.3987 30.6603L28.8817 30.6383C28.5223 30.5943 28.3427 30.521 28.3427 30.4183V23.1363C28.3427 23.019 28.3647 22.942 28.4087 22.9053C28.46 22.8686 28.5333 22.8503 28.6287 22.8503H32.5117ZM37.3024 30.2533C36.8404 30.5246 36.2464 30.6603 35.5204 30.6603C34.7944 30.6603 34.1821 30.4146 33.6834 29.9233C33.1847 29.4246 32.9354 28.739 32.9354 27.8663C32.9354 26.9863 33.1737 26.2786 33.6504 25.7433C34.1344 25.208 34.7431 24.9403 35.4764 24.9403C36.2097 24.9403 36.7744 25.1273 37.1704 25.5013C37.5737 25.8753 37.7754 26.33 37.7754 26.8653C37.7754 28.0533 37.0934 28.6473 35.7294 28.6473H34.9704C34.9704 28.8673 35.0291 29.0213 35.1464 29.1093C35.2711 29.19 35.4507 29.2303 35.6854 29.2303C36.1987 29.2303 36.6864 29.113 37.1484 28.8783C37.1557 28.871 37.1887 28.9223 37.2474 29.0323C37.4234 29.3476 37.5114 29.6153 37.5114 29.8353C37.5114 30.048 37.4417 30.1873 37.3024 30.2533ZM35.9274 27.0743C35.9274 26.7663 35.7771 26.6123 35.4764 26.6123C35.3371 26.6123 35.2161 26.6563 35.1134 26.7443C35.0181 26.825 34.9704 26.946 34.9704 27.1073V27.4483H35.5644C35.8064 27.4483 35.9274 27.3236 35.9274 27.0743ZM40.903 30.5393C40.903 30.5906 40.5694 30.6163 39.902 30.6163C39.2347 30.6016 38.901 30.5723 38.901 30.5283V26.8763H38.604C38.4867 26.8763 38.3914 26.8066 38.318 26.6673C38.252 26.5206 38.219 26.341 38.219 26.1283C38.219 25.3363 38.4537 24.9403 38.923 24.9403C39.253 24.9403 39.528 25.043 39.748 25.2483C39.968 25.4463 40.078 25.6736 40.078 25.9303C40.232 25.6296 40.4374 25.3913 40.694 25.2153C40.958 25.032 41.2257 24.9403 41.497 24.9403C41.9224 24.9403 42.179 25.0503 42.267 25.2703C42.289 25.329 42.3 25.417 42.3 25.5343C42.3 25.6443 42.2634 25.846 42.19 26.1393C42.124 26.4326 42.0544 26.6453 41.981 26.7773C41.9077 26.9093 41.8637 26.9753 41.849 26.9753C41.8344 26.9753 41.7647 26.9496 41.64 26.8983C41.5227 26.8396 41.4164 26.8103 41.321 26.8103C41.0424 26.8103 40.903 27.0303 40.903 27.4703V30.5393ZM43.0864 28.5703C43.6804 28.9296 44.1497 29.1093 44.4944 29.1093C44.7144 29.1093 44.8244 29.0323 44.8244 28.8783C44.8244 28.7683 44.6337 28.6253 44.2524 28.4493C43.3357 28.0753 42.8774 27.463 42.8774 26.6123C42.8774 26.0696 43.0754 25.6553 43.4714 25.3693C43.8674 25.0833 44.3404 24.9403 44.8904 24.9403C45.4477 24.9403 45.917 24.999 46.2984 25.1163C46.687 25.2336 46.8814 25.3876 46.8814 25.5783C46.8814 25.7396 46.8007 25.9523 46.6394 26.2163C46.4854 26.4803 46.379 26.6233 46.3204 26.6453C46.005 26.4693 45.664 26.3813 45.2974 26.3813C45.0994 26.3813 45.0004 26.451 45.0004 26.5903C45.0004 26.6783 45.037 26.7553 45.1104 26.8213C45.191 26.88 45.334 26.957 45.5394 27.0523C45.7447 27.1403 45.9134 27.221 46.0454 27.2943C46.1847 27.3676 46.3387 27.4703 46.5074 27.6023C46.8594 27.881 47.0354 28.244 47.0354 28.6913C47.0354 29.278 46.841 29.7546 46.4524 30.1213C46.0637 30.4806 45.477 30.6603 44.6924 30.6603C44.1717 30.6603 43.6987 30.5723 43.2734 30.3963C42.848 30.2203 42.6354 29.9783 42.6354 29.6703C42.6354 29.465 42.683 29.2486 42.7784 29.0213C42.881 28.794 42.9837 28.6436 43.0864 28.5703Z" fill="white"/>
<path d="M12.817 20.6603C11.7903 20.6603 10.9507 20.323 10.298 19.6483C9.65267 18.9736 9.33 17.991 9.33 16.7003C9.33 15.4023 9.65633 14.4196 10.309 13.7523C10.969 13.085 11.816 12.7513 12.85 12.7513C13.8913 12.7513 14.731 13.0813 15.369 13.7413C16.007 14.394 16.326 15.3876 16.326 16.7223C16.326 18.0496 15.9997 19.0396 15.347 19.6923C14.6943 20.3376 13.851 20.6603 12.817 20.6603ZM12.828 14.8633C12.476 14.8633 12.179 15.0246 11.937 15.3473C11.7023 15.67 11.585 16.1246 11.585 16.7113C11.585 17.2906 11.6987 17.738 11.926 18.0533C12.1533 18.3613 12.4503 18.5153 12.817 18.5153C13.191 18.5153 13.4917 18.3576 13.719 18.0423C13.9537 17.727 14.071 17.276 14.071 16.6893C14.071 16.1026 13.95 15.6516 13.708 15.3363C13.4733 15.021 13.18 14.8633 12.828 14.8633Z" fill="white"/>
<path d="M11 25.4176L20.4722 18.0503" stroke="white" stroke-width="2" stroke-linecap="round"/>
</svg>
