<?xml version="1.0" encoding="UTF-8"?>
<!DOCTYPE svg PUBLIC "-//W3C//DTD SVG 1.1//EN" "http://www.w3.org/Graphics/SVG/1.1/DTD/svg11.dtd">
<svg xmlns="http://www.w3.org/2000/svg" version="1.1" width="64px" height="64px" style="shape-rendering:geometricPrecision; text-rendering:geometricPrecision; image-rendering:optimizeQuality; fill-rule:evenodd; clip-rule:evenodd" xmlns:xlink="http://www.w3.org/1999/xlink">
<g><path style="opacity:0.755" fill="#000000" d="M 27.5,-0.5 C 30.1667,-0.5 32.8333,-0.5 35.5,-0.5C 37.3791,3.00852 40.3791,4.34186 44.5,3.5C 44.5,4.83333 44.5,6.16667 44.5,7.5C 47.5184,7.33537 50.5184,7.50204 53.5,8C 55.0488,9.21398 56.2155,10.714 57,12.5C 57.6667,28.1667 57.6667,43.8333 57,59.5C 56.3378,60.9839 55.5045,62.3172 54.5,63.5C 39.1667,63.5 23.8333,63.5 8.5,63.5C 7.49551,62.3172 6.66218,60.9839 6,59.5C 5.33333,43.8333 5.33333,28.1667 6,12.5C 6.78451,10.714 7.95118,9.21398 9.5,8C 12.4816,7.50204 15.4816,7.33537 18.5,7.5C 18.5,6.16667 18.5,4.83333 18.5,3.5C 22.6209,4.34186 25.6209,3.00852 27.5,-0.5 Z M 30.5,2.5 C 32.922,3.08521 34.5887,4.58521 35.5,7C 37.1341,7.49351 38.8008,7.66018 40.5,7.5C 40.5,9.16667 40.5,10.8333 40.5,12.5C 34.5,12.5 28.5,12.5 22.5,12.5C 22.5,10.8333 22.5,9.16667 22.5,7.5C 26.4592,7.85344 29.1258,6.18677 30.5,2.5 Z M 11.5,11.5 C 13.8333,11.5 16.1667,11.5 18.5,11.5C 18.5,13.1667 18.5,14.8333 18.5,16.5C 27.1667,16.5 35.8333,16.5 44.5,16.5C 44.5,14.8333 44.5,13.1667 44.5,11.5C 46.8568,11.3367 49.1902,11.5034 51.5,12C 52.1258,12.7504 52.6258,13.5838 53,14.5C 53.6667,28.8333 53.6667,43.1667 53,57.5C 46.0702,58.8142 38.9035,59.4809 31.5,59.5C 24.0965,59.4809 16.9298,58.8142 10,57.5C 9.33333,43.1667 9.33333,28.8333 10,14.5C 10.5133,13.4734 11.0133,12.4734 11.5,11.5 Z"/></g>
<g><path style="opacity:0.645" fill="#000000" d="M 22.5,20.5 C 23.8333,20.5 25.1667,20.5 26.5,20.5C 26.6567,21.8734 26.49,23.2068 26,24.5C 23.3557,26.31 20.8557,28.31 18.5,30.5C 15.4402,28.9812 13.9402,26.6478 14,23.5C 15.6804,22.3966 17.1804,22.7299 18.5,24.5C 20.188,23.4787 21.5213,22.1454 22.5,20.5 Z"/></g>
<g><path style="opacity:0.724" fill="#000000" d="M 28.5,24.5 C 35.5,24.5 42.5,24.5 49.5,24.5C 49.67,25.8221 49.3366,26.9887 48.5,28C 41.8085,28.8309 35.1418,28.6642 28.5,27.5C 27.2086,26.4728 27.2086,25.4728 28.5,24.5 Z"/></g>
<g><path style="opacity:0.646" fill="#000000" d="M 23.5,32.5 C 26.0764,32.7218 26.9098,34.0551 26,36.5C 23.9327,39.07 21.4327,41.07 18.5,42.5C 15.6095,40.9571 13.9429,38.6238 13.5,35.5C 15.2624,35.3573 16.9291,35.6906 18.5,36.5C 20.21,35.1128 21.8767,33.7794 23.5,32.5 Z"/></g>
<g><path style="opacity:0.725" fill="#000000" d="M 28.5,36.5 C 35.5,36.5 42.5,36.5 49.5,36.5C 49.67,37.8221 49.3366,38.9887 48.5,40C 41.8085,40.8309 35.1418,40.6642 28.5,39.5C 27.2086,38.4728 27.2086,37.4728 28.5,36.5 Z"/></g>
<g><path style="opacity:0.675" fill="#000000" d="M 23.5,44.5 C 26.0764,44.7218 26.9098,46.0551 26,48.5C 23.9495,50.8878 21.6162,52.8878 19,54.5C 15.8198,53.1606 13.9865,50.8273 13.5,47.5C 15.7224,47.178 17.5557,47.8446 19,49.5C 20.7073,47.9625 22.2073,46.2959 23.5,44.5 Z"/></g>
<g><path style="opacity:0.708" fill="#000000" d="M 28.5,48.5 C 35.5,48.5 42.5,48.5 49.5,48.5C 49.5,49.8333 49.5,51.1667 49.5,52.5C 42.4921,52.6663 35.4921,52.4996 28.5,52C 27.3157,50.8545 27.3157,49.6879 28.5,48.5 Z"/></g>
</svg>
